<svg width="50" height="50" viewBox="0 0 72 71" fill="none" xmlns="http://www.w3.org/2000/svg">
<g clip-path="url(#clip0_404_547)">
<path d="M0.71875 35.3693C0.71875 50.4851 10.2593 63.3714 23.6465 68.3388L26.7037 35.3692L23.6465 2.39978C10.2593 7.36725 0.71875 20.2534 0.71875 35.3693Z" fill="#6DA544"/>
<path d="M71.0312 35.3693C71.0312 15.9532 55.2911 0.213074 35.875 0.213074C31.5746 0.213074 27.4552 0.986649 23.6465 2.39977V68.3389C27.4552 69.7521 31.5746 70.5256 35.875 70.5256C55.2911 70.5256 71.0312 54.7855 71.0312 35.3693Z" fill="#D80027"/>
<path d="M23.6469 47.5975C30.4003 47.5975 35.8751 42.1228 35.8751 35.3693C35.8751 28.6159 30.4003 23.1411 23.6469 23.1411C16.8935 23.1411 11.4187 28.6159 11.4187 35.3693C11.4187 42.1228 16.8935 47.5975 23.6469 47.5975Z" fill="#FFDA44"/>
<path d="M16.7683 29.2552V36.8978C16.7683 40.6966 19.8478 43.7762 23.6467 43.7762C27.4456 43.7762 30.5251 40.6968 30.5251 36.8978V29.2552H16.7683Z" fill="#D80027"/>
<path d="M23.6466 39.1906C22.3824 39.1906 21.3538 38.162 21.3538 36.8978V33.8408H25.9393V36.8979C25.9393 38.162 24.9107 39.1906 23.6466 39.1906Z" fill="#F0F0F0"/>
</g>
<defs>
<clipPath id="clip0_404_547">
<rect width="70.3125" height="70.3125" fill="white" transform="translate(0.71875 0.213074)"/>
</clipPath>
</defs>
</svg>
