<svg width="50" height="50" viewBox="0 0 72 71" fill="none" xmlns="http://www.w3.org/2000/svg">
<g clip-path="url(#clip0_404_485)">
<path d="M35.875 70.5256C55.2913 70.5256 71.0312 54.7856 71.0312 35.3693C71.0312 15.9531 55.2913 0.213074 35.875 0.213074C16.4587 0.213074 0.71875 15.9531 0.71875 35.3693C0.71875 54.7856 16.4587 70.5256 35.875 70.5256Z" fill="#F0F0F0"/>
<path d="M35.875 0.213074C16.4589 0.213074 0.71875 15.9532 0.71875 35.3693C0.71875 39.6696 1.49232 43.7891 2.90544 47.5975H68.8447C70.2578 43.7891 71.0312 39.6696 71.0312 35.3693C71.0312 15.9532 55.2911 0.213074 35.875 0.213074Z" fill="#0052B4"/>
<path d="M35.875 0.213074C20.759 0.213074 7.87273 9.7536 2.9054 23.1411H68.8447C63.8772 9.7536 50.9909 0.213074 35.875 0.213074V0.213074Z" fill="#D80027"/>
<path d="M9.80957 20.084V37.6218C9.80957 47.5979 22.8422 50.6547 22.8422 50.6547C22.8422 50.6547 35.8748 47.5979 35.8748 37.6218V20.084H9.80957Z" fill="#D80027"/>
<path d="M15.1995 23.1411H30.4849V17.0269L27.4278 18.5554L22.8422 13.9698L18.2565 18.5554L15.1995 17.0269V23.1411Z" fill="#FFDA44"/>
<path d="M32.8179 40.0637L22.8824 30.1282L12.9469 40.0637L16.1894 43.3061L22.8824 36.6131L29.5754 43.3061L32.8179 40.0637Z" fill="#FFDA44"/>
<path d="M32.8179 30.7838H28.1822C28.4428 30.3339 28.5945 29.8129 28.5945 29.2556C28.5945 27.567 27.2257 26.1985 25.5374 26.1985C24.3708 26.1985 23.3577 26.8519 22.8423 27.8125C22.3269 26.852 21.3138 26.1985 20.1472 26.1985C18.4589 26.1985 17.0901 27.567 17.0901 29.2556C17.0901 29.8129 17.2417 30.334 17.5024 30.7838H12.9469C12.9469 32.4722 14.4176 33.8408 16.1057 33.8408H16.004C16.004 35.5293 17.3726 36.8979 19.0611 36.8979C19.0611 38.3929 20.1347 39.6349 21.5526 39.9008L19.1439 45.3393C20.2983 45.8085 21.5598 46.0692 22.8825 46.0692C24.2053 46.0692 25.4668 45.8085 26.6212 45.3393L24.2124 39.9008C25.6303 39.6352 26.704 38.393 26.704 36.8979C28.3924 36.8979 29.7611 35.5293 29.7611 33.8408H29.6593C31.3474 33.8408 32.8179 32.4721 32.8179 30.7838V30.7838Z" fill="#F0F0F0"/>
</g>
<defs>
<clipPath id="clip0_404_485">
<rect width="70.3125" height="70.3125" fill="white" transform="translate(0.71875 0.213074)"/>
</clipPath>
</defs>
</svg>

