<svg width="50" height="50" viewBox="0 0 71 71" fill="none" xmlns="http://www.w3.org/2000/svg">
<g clip-path="url(#clip0_404_554)">
<path d="M35.25 70.5256C54.6663 70.5256 70.4062 54.7856 70.4062 35.3693C70.4062 15.9531 54.6663 0.213074 35.25 0.213074C15.8337 0.213074 0.09375 15.9531 0.09375 35.3693C0.09375 54.7856 15.8337 70.5256 35.25 70.5256Z" fill="#F0F0F0"/>
<path d="M35.25 26.198H69.1951C68.3136 22.9277 66.9738 19.8459 65.2462 17.0268H35.25V26.198Z" fill="#338AF3"/>
<path d="M13.3658 62.8829H57.1344C60.3428 60.3275 63.0943 57.2236 65.2463 53.7117H5.25391C7.40599 57.2235 10.1575 60.3275 13.3658 62.8829V62.8829Z" fill="#338AF3"/>
<path d="M35.25 0.213074V7.85571H57.1344C51.129 3.07282 43.5239 0.213074 35.25 0.213074V0.213074Z" fill="#338AF3"/>
<path d="M35.25 26.198H69.1951C68.3136 22.9277 66.9738 19.8459 65.2462 17.0268H35.25V26.198Z" fill="#338AF3"/>
<path d="M0.09375 35.3693C0.09375 38.5426 0.516724 41.6163 1.30486 44.5406H69.1953C69.9833 41.6163 70.4062 38.5426 70.4062 35.3693H0.09375Z" fill="#338AF3"/>
<path d="M30.6646 20.7879L26.3709 22.8076L28.6573 26.9659L23.995 26.0741L23.4042 30.7838L20.1569 27.3198L16.9093 30.7838L16.3187 26.0741L11.6564 26.9656L13.9426 22.8074L9.64917 20.7879L13.9428 18.7684L11.6564 14.6101L16.3186 15.5019L16.9095 10.7922L20.1569 14.2562L23.4043 10.7922L23.995 15.5019L28.6574 14.6101L26.371 18.7686L30.6646 20.7879Z" fill="#FFDA44"/>
</g>
<defs>
<clipPath id="clip0_404_554">
<rect width="70.3125" height="70.3125" fill="white" transform="translate(0.09375 0.213074)"/>
</clipPath>
</defs>
</svg>
